<svg width="50" height="50" viewBox="0 0 50 50" fill="none" xmlns="http://www.w3.org/2000/svg">
<path d="M25 50C38.8071 50 50 38.8071 50 25C50 11.1929 38.8071 0 25 0C11.1929 0 0 11.1929 0 25C0 38.8071 11.1929 50 25 50Z" fill="#FCFCFC"/>
<path fill-rule="evenodd" clip-rule="evenodd" d="M25.824 38.909H25.8179C23.3299 38.9081 20.8852 38.2839 18.7139 37.0995L10.8333 39.1667L12.9423 31.4635C11.6414 29.209 10.9569 26.6516 10.958 24.0316C10.9612 15.8352 17.63 9.16675 25.8239 9.16675C29.8007 9.16846 33.5332 10.7166 36.3398 13.5266C39.1465 16.3364 40.6913 20.0713 40.6897 24.0433C40.6865 32.2379 34.0203 38.9056 25.824 38.909ZM19.079 34.4084L19.5302 34.6762C21.4273 35.8019 23.6019 36.3976 25.819 36.3985H25.824C32.6342 36.3985 38.177 30.8555 38.1797 24.0426C38.181 20.741 36.897 17.6367 34.5642 15.3012C32.2314 12.9657 29.1291 11.6789 25.8289 11.6777C19.0135 11.6777 13.4706 17.2201 13.4679 24.0326C13.4669 26.3672 14.1202 28.6409 15.357 30.6082L15.6508 31.0756L14.4026 35.6351L19.079 34.4084ZM32.8046 27.2439C33.0637 27.3691 33.2386 27.4537 33.3133 27.5784C33.4061 27.7332 33.4061 28.4769 33.0968 29.3447C32.7871 30.2124 31.3032 31.0043 30.5895 31.1109C29.9496 31.2065 29.1397 31.2464 28.2499 30.9637C27.7104 30.7925 27.0186 30.564 26.1324 30.1812C22.6502 28.6776 20.2969 25.3026 19.8521 24.6647C19.821 24.62 19.7992 24.5888 19.787 24.5725L19.784 24.5685C19.5875 24.3063 18.2703 22.5489 18.2703 20.7301C18.2703 19.0191 19.1108 18.1223 19.4976 17.7095C19.5241 17.6812 19.5485 17.6552 19.5704 17.6313C19.9108 17.2595 20.3133 17.1665 20.5609 17.1665C20.8085 17.1665 21.0564 17.1688 21.2728 17.1797C21.2995 17.181 21.3273 17.1808 21.356 17.1807C21.5724 17.1794 21.8423 17.1778 22.1085 17.8173C22.2109 18.0634 22.3608 18.4282 22.5188 18.813C22.8385 19.5911 23.1916 20.4509 23.2537 20.5753C23.3466 20.7612 23.4085 20.9781 23.2847 21.2261C23.2661 21.2633 23.2489 21.2984 23.2325 21.3319C23.1395 21.5218 23.0711 21.6614 22.9133 21.8457C22.8512 21.9182 22.7871 21.9963 22.7229 22.0744C22.5951 22.23 22.4674 22.3856 22.3561 22.4965C22.1701 22.6817 21.9766 22.8826 22.1932 23.2545C22.4099 23.6264 23.1554 24.8427 24.2596 25.8277C25.4466 26.8864 26.4783 27.3339 27.0012 27.5608C27.1033 27.6051 27.1861 27.6409 27.2467 27.6713C27.618 27.8573 27.8347 27.8262 28.0514 27.5784C28.2681 27.3305 28.98 26.4937 29.2275 26.1219C29.4751 25.7502 29.7229 25.8121 30.0633 25.936C30.4038 26.0601 32.23 26.9586 32.6015 27.1445C32.674 27.1808 32.7417 27.2135 32.8046 27.2439Z" fill="black"/>
</svg>
