<svg width="359" height="35" viewBox="0 0 359 35" fill="none" xmlns="http://www.w3.org/2000/svg">
<rect width="239" height="35" fill="black"/>
<path d="M14.8262 18.8145H11.1641V16.7051H14.8262C15.4251 16.7051 15.9102 16.6074 16.2812 16.4121C16.6589 16.2103 16.9355 15.9368 17.1113 15.5918C17.2871 15.2402 17.375 14.8398 17.375 14.3906C17.375 13.9544 17.2871 13.5475 17.1113 13.1699C16.9355 12.7923 16.6589 12.4863 16.2812 12.252C15.9102 12.0176 15.4251 11.9004 14.8262 11.9004H12.043V24H9.35742V9.78125H14.8262C15.9329 9.78125 16.877 9.97982 17.6582 10.377C18.446 10.7676 19.0449 11.3112 19.4551 12.0078C19.8717 12.6979 20.0801 13.4857 20.0801 14.3711C20.0801 15.2891 19.8717 16.0801 19.4551 16.7441C19.0449 17.4082 18.446 17.9193 17.6582 18.2773C16.877 18.6354 15.9329 18.8145 14.8262 18.8145ZM24.8164 19.7031L30.8223 9.78125H33.5176V24H30.8223V14.0781L24.8164 24H22.1309V9.78125H24.8164V19.7031ZM42.0625 9.78125V24H39.3867V9.78125H42.0625ZM46.4766 9.78125V11.9004H35.0215V9.78125H46.4766ZM52.7168 18.9512L56.2715 9.78125H59.1914L54.2891 21.334C54.1263 21.7051 53.9408 22.0632 53.7324 22.4082C53.5241 22.7533 53.2734 23.0625 52.9805 23.3359C52.694 23.6029 52.3457 23.8145 51.9355 23.9707C51.5319 24.127 51.0436 24.2051 50.4707 24.2051C50.321 24.2051 50.1419 24.1986 49.9336 24.1855C49.7253 24.179 49.5658 24.1693 49.4551 24.1562V22.0469C49.5332 22.0664 49.6602 22.0794 49.8359 22.0859C50.0182 22.0924 50.1484 22.0957 50.2266 22.0957C50.6042 22.0957 50.9036 22.0371 51.125 21.9199C51.3529 21.7962 51.5319 21.6302 51.6621 21.4219C51.7988 21.207 51.9193 20.9629 52.0234 20.6895L52.7168 18.9512ZM50.1973 9.78125L53.6055 17.2324L54.4062 20.1328L52.3652 20.1914L47.2871 9.78125H50.1973ZM65.6367 11.9395L61.584 24H58.7422L64.0547 9.78125H65.8711L65.6367 11.9395ZM69.0254 24L64.9531 11.9395L64.709 9.78125H66.5352L71.877 24H69.0254ZM68.8398 18.7168V20.8359H61.2129V18.7168H68.8398ZM82.9219 9.78125V11.9004H75.9785V9.78125H82.9219ZM84.9043 9.78125V24H82.209V9.78125H84.9043ZM75.5488 9.78125H78.2246L77.873 16.8809C77.821 17.929 77.7266 18.847 77.5898 19.6348C77.4531 20.4225 77.2676 21.0964 77.0332 21.6562C76.7988 22.2096 76.5059 22.6589 76.1543 23.0039C75.8027 23.349 75.3861 23.6029 74.9043 23.7656C74.429 23.9219 73.8757 24 73.2441 24H72.5703V21.8906L72.9512 21.8516C73.2832 21.8255 73.5697 21.7441 73.8105 21.6074C74.0579 21.4707 74.2695 21.2656 74.4453 20.9922C74.6211 20.7122 74.7643 20.3542 74.875 19.918C74.9922 19.4818 75.0833 18.9512 75.1484 18.3262C75.2201 17.7012 75.2721 16.9688 75.3047 16.1289L75.5488 9.78125ZM89.4355 15.1035H92.8828C93.9831 15.1035 94.9271 15.2891 95.7148 15.6602C96.5026 16.0247 97.1048 16.5358 97.5215 17.1934C97.9447 17.8509 98.1562 18.6224 98.1562 19.5078C98.1562 20.1719 98.0358 20.7773 97.7949 21.3242C97.5605 21.8711 97.2155 22.3464 96.7598 22.75C96.304 23.1471 95.7507 23.4564 95.0996 23.6777C94.4486 23.8926 93.7096 24 92.8828 24H87.6289V9.78125H90.3242V21.8906H92.8828C93.4688 21.8906 93.9538 21.7799 94.3379 21.5586C94.722 21.3372 95.0085 21.0443 95.1973 20.6797C95.3861 20.3151 95.4805 19.918 95.4805 19.4883C95.4805 19.0651 95.3861 18.681 95.1973 18.3359C95.0085 17.9909 94.722 17.7174 94.3379 17.5156C93.9538 17.3138 93.4688 17.2129 92.8828 17.2129H89.4355V15.1035ZM111.672 16.5293V17.2617C111.672 18.3359 111.529 19.3027 111.242 20.1621C110.956 21.015 110.549 21.7409 110.021 22.3398C109.494 22.9388 108.866 23.3978 108.137 23.7168C107.408 24.0358 106.597 24.1953 105.705 24.1953C104.826 24.1953 104.019 24.0358 103.283 23.7168C102.554 23.3978 101.923 22.9388 101.389 22.3398C100.855 21.7409 100.441 21.015 100.148 20.1621C99.8555 19.3027 99.709 18.3359 99.709 17.2617V16.5293C99.709 15.4486 99.8555 14.4818 100.148 13.6289C100.441 12.776 100.852 12.0501 101.379 11.4512C101.906 10.8457 102.535 10.3835 103.264 10.0645C103.999 9.74544 104.807 9.58594 105.686 9.58594C106.577 9.58594 107.388 9.74544 108.117 10.0645C108.846 10.3835 109.475 10.8457 110.002 11.4512C110.536 12.0501 110.946 12.776 111.232 13.6289C111.525 14.4818 111.672 15.4486 111.672 16.5293ZM108.957 17.2617V16.5098C108.957 15.735 108.885 15.0547 108.742 14.4688C108.599 13.8763 108.387 13.3783 108.107 12.9746C107.827 12.571 107.482 12.2682 107.072 12.0664C106.662 11.8581 106.2 11.7539 105.686 11.7539C105.165 11.7539 104.702 11.8581 104.299 12.0664C103.902 12.2682 103.563 12.571 103.283 12.9746C103.003 13.3783 102.788 13.8763 102.639 14.4688C102.495 15.0547 102.424 15.735 102.424 16.5098V17.2617C102.424 18.0299 102.495 18.7103 102.639 19.3027C102.788 19.8952 103.003 20.3965 103.283 20.8066C103.57 21.2103 103.915 21.5163 104.318 21.7246C104.722 21.9329 105.184 22.0371 105.705 22.0371C106.226 22.0371 106.688 21.9329 107.092 21.7246C107.495 21.5163 107.834 21.2103 108.107 20.8066C108.387 20.3965 108.599 19.8952 108.742 19.3027C108.885 18.7103 108.957 18.0299 108.957 17.2617ZM123.371 21.8906V24H115.812V21.8906H123.371ZM116.633 9.78125V24H113.947V9.78125H116.633ZM122.385 15.6504V17.7109H115.812V15.6504H122.385ZM123.342 9.78125V11.9004H115.812V9.78125H123.342ZM135.871 11.9395L131.818 24H128.977L134.289 9.78125H136.105L135.871 11.9395ZM139.26 24L135.188 11.9395L134.943 9.78125H136.77L142.111 24H139.26ZM139.074 18.7168V20.8359H131.447V18.7168H139.074ZM152.785 9.78125V11.9004H146.281V24H143.605V9.78125H152.785ZM164.152 21.8906V24H156.594V21.8906H164.152ZM157.414 9.78125V24H154.729V9.78125H157.414ZM163.166 15.6504V17.7109H156.594V15.6504H163.166ZM164.123 9.78125V11.9004H156.594V9.78125H164.123ZM175.451 15.6504V17.7598H167.971V15.6504H175.451ZM168.703 9.78125V24H166.018V9.78125H168.703ZM177.443 9.78125V24H174.758V9.78125H177.443ZM188.498 19.3223H191.184C191.112 20.2728 190.848 21.1159 190.393 21.8516C189.937 22.5807 189.302 23.1536 188.488 23.5703C187.674 23.987 186.688 24.1953 185.529 24.1953C184.637 24.1953 183.833 24.0391 183.117 23.7266C182.408 23.4076 181.799 22.9551 181.291 22.3691C180.79 21.7767 180.406 21.0671 180.139 20.2402C179.872 19.4069 179.738 18.4727 179.738 17.4375V16.3535C179.738 15.3184 179.875 14.3841 180.148 13.5508C180.422 12.7174 180.812 12.0078 181.32 11.4219C181.835 10.8294 182.45 10.3737 183.166 10.0547C183.889 9.73568 184.696 9.57617 185.588 9.57617C186.747 9.57617 187.727 9.79102 188.527 10.2207C189.328 10.6439 189.95 11.2266 190.393 11.9688C190.835 12.7109 191.102 13.5638 191.193 14.5273H188.508C188.456 13.9284 188.326 13.4206 188.117 13.0039C187.915 12.5872 187.609 12.2715 187.199 12.0566C186.796 11.8353 186.258 11.7246 185.588 11.7246C185.067 11.7246 184.608 11.8223 184.211 12.0176C183.82 12.2129 183.495 12.5059 183.234 12.8965C182.974 13.2806 182.779 13.7624 182.648 14.3418C182.518 14.9147 182.453 15.5788 182.453 16.334V17.4375C182.453 18.1602 182.512 18.8079 182.629 19.3809C182.746 19.9538 182.928 20.4388 183.176 20.8359C183.423 21.2331 183.742 21.5358 184.133 21.7441C184.523 21.9525 184.989 22.0566 185.529 22.0566C186.187 22.0566 186.721 21.9525 187.131 21.7441C187.548 21.5358 187.863 21.2298 188.078 20.8262C188.299 20.4225 188.439 19.9212 188.498 19.3223ZM199.074 9.78125V24H196.398V9.78125H199.074ZM203.488 9.78125V11.9004H192.033V9.78125H203.488ZM210.725 17.6621H207.092L207.072 15.7676H210.188C210.721 15.7676 211.167 15.6927 211.525 15.543C211.883 15.3932 212.154 15.1751 212.336 14.8887C212.525 14.6022 212.619 14.2539 212.619 13.8438C212.619 13.388 212.531 13.0169 212.355 12.7305C212.186 12.444 211.919 12.2357 211.555 12.1055C211.19 11.9688 210.728 11.9004 210.168 11.9004H207.961V24H205.275V9.78125H210.168C210.975 9.78125 211.695 9.85938 212.326 10.0156C212.964 10.1654 213.505 10.3997 213.947 10.7188C214.39 11.0378 214.725 11.4382 214.953 11.9199C215.188 12.4017 215.305 12.9746 215.305 13.6387C215.305 14.2246 215.168 14.765 214.895 15.2598C214.628 15.748 214.214 16.1452 213.654 16.4512C213.101 16.7572 212.398 16.9329 211.545 16.9785L210.725 17.6621ZM210.607 24H206.301L207.424 21.8906H210.607C211.141 21.8906 211.581 21.8027 211.926 21.627C212.277 21.4512 212.538 21.2103 212.707 20.9043C212.883 20.5918 212.971 20.2337 212.971 19.8301C212.971 19.3874 212.893 19.0033 212.736 18.6777C212.587 18.3522 212.346 18.1016 212.014 17.9258C211.688 17.75 211.258 17.6621 210.725 17.6621H207.932L207.951 15.7676H211.506L212.121 16.5C212.941 16.5065 213.609 16.6693 214.123 16.9883C214.644 17.3073 215.028 17.7174 215.275 18.2188C215.523 18.7201 215.646 19.2604 215.646 19.8398C215.646 20.7513 215.448 21.5163 215.051 22.1348C214.66 22.7533 214.087 23.2188 213.332 23.5312C212.583 23.8438 211.675 24 210.607 24ZM229.484 16.5293V17.2617C229.484 18.3359 229.341 19.3027 229.055 20.1621C228.768 21.015 228.361 21.7409 227.834 22.3398C227.307 22.9388 226.678 23.3978 225.949 23.7168C225.22 24.0358 224.41 24.1953 223.518 24.1953C222.639 24.1953 221.831 24.0358 221.096 23.7168C220.367 23.3978 219.735 22.9388 219.201 22.3398C218.667 21.7409 218.254 21.015 217.961 20.1621C217.668 19.3027 217.521 18.3359 217.521 17.2617V16.5293C217.521 15.4486 217.668 14.4818 217.961 13.6289C218.254 12.776 218.664 12.0501 219.191 11.4512C219.719 10.8457 220.347 10.3835 221.076 10.0645C221.812 9.74544 222.619 9.58594 223.498 9.58594C224.39 9.58594 225.201 9.74544 225.93 10.0645C226.659 10.3835 227.287 10.8457 227.814 11.4512C228.348 12.0501 228.758 12.776 229.045 13.6289C229.338 14.4818 229.484 15.4486 229.484 16.5293ZM226.77 17.2617V16.5098C226.77 15.735 226.698 15.0547 226.555 14.4688C226.411 13.8763 226.2 13.3783 225.92 12.9746C225.64 12.571 225.295 12.2682 224.885 12.0664C224.475 11.8581 224.012 11.7539 223.498 11.7539C222.977 11.7539 222.515 11.8581 222.111 12.0664C221.714 12.2682 221.376 12.571 221.096 12.9746C220.816 13.3783 220.601 13.8763 220.451 14.4688C220.308 15.0547 220.236 15.735 220.236 16.5098V17.2617C220.236 18.0299 220.308 18.7103 220.451 19.3027C220.601 19.8952 220.816 20.3965 221.096 20.8066C221.382 21.2103 221.727 21.5163 222.131 21.7246C222.535 21.9329 222.997 22.0371 223.518 22.0371C224.038 22.0371 224.501 21.9329 224.904 21.7246C225.308 21.5163 225.646 21.2103 225.92 20.8066C226.2 20.3965 226.411 19.8952 226.555 19.3027C226.698 18.7103 226.77 18.0299 226.77 17.2617Z" fill="white"/>
<path d="M245.614 30.2273V24.125H246.739C247.125 23.7727 247.489 23.2756 247.83 22.6335C248.176 21.9858 248.469 21.1222 248.707 20.0426C248.952 18.9574 249.114 17.5795 249.193 15.9091L249.568 8.54545H259.932V24.125H261.943V30.1932H259.932V26H247.625V30.2273H245.614ZM249.261 24.125H257.92V10.4205H251.477L251.205 15.9091C251.136 17.1818 251.017 18.3352 250.847 19.3693C250.676 20.3977 250.457 21.3097 250.19 22.1051C249.923 22.8949 249.614 23.5682 249.261 24.125ZM279.864 17.2727C279.864 19.1136 279.532 20.7045 278.867 22.0455C278.202 23.3864 277.29 24.4205 276.131 25.1477C274.972 25.875 273.648 26.2386 272.16 26.2386C270.671 26.2386 269.347 25.875 268.188 25.1477C267.029 24.4205 266.117 23.3864 265.452 22.0455C264.788 20.7045 264.455 19.1136 264.455 17.2727C264.455 15.4318 264.788 13.8409 265.452 12.5C266.117 11.1591 267.029 10.125 268.188 9.39773C269.347 8.67045 270.671 8.30682 272.16 8.30682C273.648 8.30682 274.972 8.67045 276.131 9.39773C277.29 10.125 278.202 11.1591 278.867 12.5C279.532 13.8409 279.864 15.4318 279.864 17.2727ZM277.819 17.2727C277.819 15.7614 277.566 14.4858 277.06 13.446C276.56 12.4062 275.881 11.6193 275.023 11.0852C274.171 10.5511 273.217 10.2841 272.16 10.2841C271.103 10.2841 270.146 10.5511 269.288 11.0852C268.435 11.6193 267.756 12.4062 267.251 13.446C266.751 14.4858 266.501 15.7614 266.501 17.2727C266.501 18.7841 266.751 20.0597 267.251 21.0994C267.756 22.1392 268.435 22.9261 269.288 23.4602C270.146 23.9943 271.103 24.2614 272.16 24.2614C273.217 24.2614 274.171 23.9943 275.023 23.4602C275.881 22.9261 276.56 22.1392 277.06 21.0994C277.566 20.0597 277.819 18.7841 277.819 17.2727ZM283.418 26V8.54545H289.521C290.737 8.54545 291.739 8.75568 292.529 9.17614C293.319 9.59091 293.907 10.1506 294.293 10.8551C294.68 11.554 294.873 12.3295 294.873 13.1818C294.873 13.9318 294.739 14.5511 294.472 15.0398C294.211 15.5284 293.864 15.9148 293.433 16.1989C293.006 16.483 292.543 16.6932 292.043 16.8295V17C292.577 17.0341 293.114 17.2216 293.654 17.5625C294.194 17.9034 294.646 18.392 295.009 19.0284C295.373 19.6648 295.555 20.4432 295.555 21.3636C295.555 22.2386 295.356 23.0256 294.958 23.7244C294.56 24.4233 293.933 24.9773 293.075 25.3864C292.217 25.7955 291.1 26 289.725 26H283.418ZM285.532 24.125H289.725C291.106 24.125 292.086 23.858 292.665 23.3239C293.251 22.7841 293.543 22.1307 293.543 21.3636C293.543 20.7727 293.393 20.2273 293.092 19.7273C292.79 19.2216 292.362 18.8182 291.805 18.517C291.248 18.2102 290.589 18.0568 289.827 18.0568H285.532V24.125ZM285.532 16.2159H289.452C290.089 16.2159 290.663 16.0909 291.174 15.8409C291.691 15.5909 292.1 15.2386 292.401 14.7841C292.708 14.3295 292.862 13.7955 292.862 13.1818C292.862 12.4148 292.594 11.7642 292.06 11.2301C291.526 10.6903 290.68 10.4205 289.521 10.4205H285.532V16.2159ZM299.028 26V8.54545H309.562V10.4205H301.141V16.3182H309.016V18.1932H301.141V24.125H309.698V26H299.028ZM313.371 26V8.54545H319.269C320.638 8.54545 321.758 8.79261 322.627 9.28693C323.502 9.77557 324.15 10.4375 324.57 11.2727C324.991 12.108 325.201 13.0398 325.201 14.0682C325.201 15.0966 324.991 16.0312 324.57 16.8722C324.156 17.7131 323.513 18.3835 322.644 18.8835C321.775 19.3778 320.661 19.625 319.303 19.625H315.076V17.75H319.235C320.173 17.75 320.925 17.5881 321.494 17.2642C322.062 16.9403 322.474 16.5028 322.729 15.9517C322.991 15.3949 323.121 14.767 323.121 14.0682C323.121 13.3693 322.991 12.7443 322.729 12.1932C322.474 11.642 322.059 11.2102 321.485 10.8977C320.911 10.5795 320.15 10.4205 319.201 10.4205H315.485V26H313.371ZM328.606 8.54545H330.685V22.2841H330.856L340.401 8.54545H342.447V26H340.333V12.2955H340.163L330.651 26H328.606V8.54545ZM346.676 26V8.54545H357.21V10.4205H348.79V16.3182H356.665V18.1932H348.79V24.125H357.347V26H346.676Z" fill="black"/>
</svg>
