<svg width="166" height="35" viewBox="0 0 166 35" fill="none" xmlns="http://www.w3.org/2000/svg">
<rect width="166" height="35" fill="black"/>
<path d="M36.5114 28.5227V23.4375H37.4489C37.7708 23.1439 38.0739 22.7296 38.358 22.1946C38.6468 21.6548 38.8906 20.9351 39.0895 20.0355C39.2931 19.1312 39.428 17.983 39.4943 16.5909L39.8068 10.4545H48.4432V23.4375H50.1193V28.4943H48.4432V25H38.1875V28.5227H36.5114ZM39.5511 23.4375H46.767V12.017H41.3977L41.1705 16.5909C41.1136 17.6515 41.0142 18.6127 40.8722 19.4744C40.7301 20.3314 40.5478 21.0914 40.3253 21.7543C40.1027 22.4124 39.8447 22.9735 39.5511 23.4375ZM65.0536 17.7273C65.0536 19.2614 64.7766 20.5871 64.2227 21.7045C63.6687 22.822 62.9087 23.6837 61.9428 24.2898C60.9769 24.8958 59.8737 25.1989 58.6332 25.1989C57.3926 25.1989 56.2894 24.8958 55.3235 24.2898C54.3576 23.6837 53.5977 22.822 53.0437 21.7045C52.4897 20.5871 52.2127 19.2614 52.2127 17.7273C52.2127 16.1932 52.4897 14.8674 53.0437 13.75C53.5977 12.6326 54.3576 11.7708 55.3235 11.1648C56.2894 10.5587 57.3926 10.2557 58.6332 10.2557C59.8737 10.2557 60.9769 10.5587 61.9428 11.1648C62.9087 11.7708 63.6687 12.6326 64.2227 13.75C64.7766 14.8674 65.0536 16.1932 65.0536 17.7273ZM63.3491 17.7273C63.3491 16.4678 63.1384 15.4048 62.717 14.5384C62.3003 13.6719 61.7345 13.0161 61.0195 12.571C60.3093 12.1259 59.5138 11.9034 58.6332 11.9034C57.7525 11.9034 56.9547 12.1259 56.2397 12.571C55.5295 13.0161 54.9637 13.6719 54.5423 14.5384C54.1256 15.4048 53.9173 16.4678 53.9173 17.7273C53.9173 18.9867 54.1256 20.0497 54.5423 20.9162C54.9637 21.7827 55.5295 22.4384 56.2397 22.8835C56.9547 23.3286 57.7525 23.5511 58.6332 23.5511C59.5138 23.5511 60.3093 23.3286 61.0195 22.8835C61.7345 22.4384 62.3003 21.7827 62.717 20.9162C63.1384 20.0497 63.3491 18.9867 63.3491 17.7273ZM68.0153 25V10.4545H73.1005C74.1138 10.4545 74.9495 10.6297 75.6076 10.9801C76.2657 11.3258 76.7558 11.7921 77.0778 12.3793C77.3997 12.9616 77.5607 13.608 77.5607 14.3182C77.5607 14.9432 77.4495 15.4593 77.2269 15.8665C77.0091 16.2737 76.7203 16.5956 76.3604 16.8324C76.0053 17.0691 75.6194 17.2443 75.2028 17.358V17.5C75.6478 17.5284 76.0953 17.6847 76.5451 17.9688C76.9949 18.2528 77.3713 18.66 77.6744 19.1903C77.9774 19.7206 78.1289 20.3693 78.1289 21.1364C78.1289 21.8655 77.9632 22.5213 77.6317 23.1037C77.3003 23.6861 76.7771 24.1477 76.0621 24.4886C75.3472 24.8295 74.4168 25 73.271 25H68.0153ZM69.7766 23.4375H73.271C74.4215 23.4375 75.2383 23.215 75.7212 22.7699C76.2089 22.3201 76.4528 21.7756 76.4528 21.1364C76.4528 20.6439 76.3273 20.1894 76.0763 19.7727C75.8254 19.3513 75.4679 19.0152 75.0039 18.7642C74.5399 18.5085 73.9906 18.3807 73.3562 18.3807H69.7766V23.4375ZM69.7766 16.8466H73.0437C73.574 16.8466 74.0522 16.7424 74.4783 16.5341C74.9092 16.3258 75.2501 16.0322 75.5011 15.6534C75.7567 15.2746 75.8846 14.8295 75.8846 14.3182C75.8846 13.679 75.6621 13.1368 75.217 12.6918C74.7719 12.242 74.0664 12.017 73.1005 12.017H69.7766V16.8466ZM81.0231 25V10.4545H89.8015V12.017H82.7844V16.9318H89.3469V18.4943H82.7844V23.4375H89.9151V25H81.0231ZM92.9762 25V10.4545H97.891C99.0321 10.4545 99.9648 10.6605 100.689 11.0724C101.418 11.4796 101.958 12.0312 102.309 12.7273C102.659 13.4233 102.834 14.1998 102.834 15.0568C102.834 15.9138 102.659 16.6927 102.309 17.3935C101.963 18.0942 101.428 18.6529 100.703 19.0696C99.979 19.4815 99.051 19.6875 97.9194 19.6875H94.3967V18.125H97.8626C98.6438 18.125 99.2712 17.9901 99.7447 17.7202C100.218 17.4503 100.561 17.0857 100.775 16.6264C100.992 16.1624 101.101 15.6392 101.101 15.0568C101.101 14.4744 100.992 13.9536 100.775 13.4943C100.561 13.035 100.216 12.6752 99.7376 12.4148C99.2594 12.1496 98.6249 12.017 97.8342 12.017H94.7376V25H92.9762ZM105.672 10.4545H107.404V21.9034H107.547L115.501 10.4545H117.206V25H115.444V13.5795H115.302L107.376 25H105.672V10.4545ZM120.73 25V10.4545H129.509V12.017H122.491V16.9318H129.054V18.4943H122.491V23.4375H129.622V25H120.73Z" fill="white"/>
</svg>
