<svg width="372" height="35" viewBox="0 0 372 35" fill="none" xmlns="http://www.w3.org/2000/svg">
<path d="M258.614 30.2273V24.125H259.739C260.125 23.7727 260.489 23.2756 260.83 22.6335C261.176 21.9858 261.469 21.1222 261.707 20.0426C261.952 18.9574 262.114 17.5795 262.193 15.9091L262.568 8.54545H272.932V24.125H274.943V30.1932H272.932V26H260.625V30.2273H258.614ZM262.261 24.125H270.92V10.4205H264.477L264.205 15.9091C264.136 17.1818 264.017 18.3352 263.847 19.3693C263.676 20.3977 263.457 21.3097 263.19 22.1051C262.923 22.8949 262.614 23.5682 262.261 24.125ZM292.864 17.2727C292.864 19.1136 292.532 20.7045 291.867 22.0455C291.202 23.3864 290.29 24.4205 289.131 25.1477C287.972 25.875 286.648 26.2386 285.16 26.2386C283.671 26.2386 282.347 25.875 281.188 25.1477C280.029 24.4205 279.117 23.3864 278.452 22.0455C277.788 20.7045 277.455 19.1136 277.455 17.2727C277.455 15.4318 277.788 13.8409 278.452 12.5C279.117 11.1591 280.029 10.125 281.188 9.39773C282.347 8.67045 283.671 8.30682 285.16 8.30682C286.648 8.30682 287.972 8.67045 289.131 9.39773C290.29 10.125 291.202 11.1591 291.867 12.5C292.532 13.8409 292.864 15.4318 292.864 17.2727ZM290.819 17.2727C290.819 15.7614 290.566 14.4858 290.06 13.446C289.56 12.4062 288.881 11.6193 288.023 11.0852C287.171 10.5511 286.217 10.2841 285.16 10.2841C284.103 10.2841 283.146 10.5511 282.288 11.0852C281.435 11.6193 280.756 12.4062 280.251 13.446C279.751 14.4858 279.501 15.7614 279.501 17.2727C279.501 18.7841 279.751 20.0597 280.251 21.0994C280.756 22.1392 281.435 22.9261 282.288 23.4602C283.146 23.9943 284.103 24.2614 285.16 24.2614C286.217 24.2614 287.171 23.9943 288.023 23.4602C288.881 22.9261 289.56 22.1392 290.06 21.0994C290.566 20.0597 290.819 18.7841 290.819 17.2727ZM296.418 26V8.54545H302.521C303.737 8.54545 304.739 8.75568 305.529 9.17614C306.319 9.59091 306.907 10.1506 307.293 10.8551C307.68 11.554 307.873 12.3295 307.873 13.1818C307.873 13.9318 307.739 14.5511 307.472 15.0398C307.211 15.5284 306.864 15.9148 306.433 16.1989C306.006 16.483 305.543 16.6932 305.043 16.8295V17C305.577 17.0341 306.114 17.2216 306.654 17.5625C307.194 17.9034 307.646 18.392 308.009 19.0284C308.373 19.6648 308.555 20.4432 308.555 21.3636C308.555 22.2386 308.356 23.0256 307.958 23.7244C307.56 24.4233 306.933 24.9773 306.075 25.3864C305.217 25.7955 304.1 26 302.725 26H296.418ZM298.532 24.125H302.725C304.106 24.125 305.086 23.858 305.665 23.3239C306.251 22.7841 306.543 22.1307 306.543 21.3636C306.543 20.7727 306.393 20.2273 306.092 19.7273C305.79 19.2216 305.362 18.8182 304.805 18.517C304.248 18.2102 303.589 18.0568 302.827 18.0568H298.532V24.125ZM298.532 16.2159H302.452C303.089 16.2159 303.663 16.0909 304.174 15.8409C304.691 15.5909 305.1 15.2386 305.401 14.7841C305.708 14.3295 305.862 13.7955 305.862 13.1818C305.862 12.4148 305.594 11.7642 305.06 11.2301C304.526 10.6903 303.68 10.4205 302.521 10.4205H298.532V16.2159ZM312.028 26V8.54545H322.562V10.4205H314.141V16.3182H322.016V18.1932H314.141V24.125H322.698V26H312.028ZM326.371 26V8.54545H332.269C333.638 8.54545 334.758 8.79261 335.627 9.28693C336.502 9.77557 337.15 10.4375 337.57 11.2727C337.991 12.108 338.201 13.0398 338.201 14.0682C338.201 15.0966 337.991 16.0312 337.57 16.8722C337.156 17.7131 336.513 18.3835 335.644 18.8835C334.775 19.3778 333.661 19.625 332.303 19.625H328.076V17.75H332.235C333.173 17.75 333.925 17.5881 334.494 17.2642C335.062 16.9403 335.474 16.5028 335.729 15.9517C335.991 15.3949 336.121 14.767 336.121 14.0682C336.121 13.3693 335.991 12.7443 335.729 12.1932C335.474 11.642 335.059 11.2102 334.485 10.8977C333.911 10.5795 333.15 10.4205 332.201 10.4205H328.485V26H326.371ZM341.606 8.54545H343.685V22.2841H343.856L353.401 8.54545H355.447V26H353.333V12.2955H353.163L343.651 26H341.606V8.54545ZM359.676 26V8.54545H370.21V10.4205H361.79V16.3182H369.665V18.1932H361.79V24.125H370.347V26H359.676Z" fill="black"/>
<rect width="252" height="35" fill="black"/>
<path d="M13.8262 18.8145H10.1641V16.7051H13.8262C14.4251 16.7051 14.9102 16.6074 15.2812 16.4121C15.6589 16.2103 15.9355 15.9368 16.1113 15.5918C16.2871 15.2402 16.375 14.8398 16.375 14.3906C16.375 13.9544 16.2871 13.5475 16.1113 13.1699C15.9355 12.7923 15.6589 12.4863 15.2812 12.252C14.9102 12.0176 14.4251 11.9004 13.8262 11.9004H11.043V24H8.35742V9.78125H13.8262C14.9329 9.78125 15.877 9.97982 16.6582 10.377C17.446 10.7676 18.0449 11.3112 18.4551 12.0078C18.8717 12.6979 19.0801 13.4857 19.0801 14.3711C19.0801 15.2891 18.8717 16.0801 18.4551 16.7441C18.0449 17.4082 17.446 17.9193 16.6582 18.2773C15.877 18.6354 14.9329 18.8145 13.8262 18.8145ZM23.8164 19.7031L29.8223 9.78125H32.5176V24H29.8223V14.0781L23.8164 24H21.1309V9.78125H23.8164V19.7031ZM41.0625 9.78125V24H38.3867V9.78125H41.0625ZM45.4766 9.78125V11.9004H34.0215V9.78125H45.4766ZM51.7168 18.9512L55.2715 9.78125H58.1914L53.2891 21.334C53.1263 21.7051 52.9408 22.0632 52.7324 22.4082C52.5241 22.7533 52.2734 23.0625 51.9805 23.3359C51.694 23.6029 51.3457 23.8145 50.9355 23.9707C50.5319 24.127 50.0436 24.2051 49.4707 24.2051C49.321 24.2051 49.1419 24.1986 48.9336 24.1855C48.7253 24.179 48.5658 24.1693 48.4551 24.1562V22.0469C48.5332 22.0664 48.6602 22.0794 48.8359 22.0859C49.0182 22.0924 49.1484 22.0957 49.2266 22.0957C49.6042 22.0957 49.9036 22.0371 50.125 21.9199C50.3529 21.7962 50.5319 21.6302 50.6621 21.4219C50.7988 21.207 50.9193 20.9629 51.0234 20.6895L51.7168 18.9512ZM49.1973 9.78125L52.6055 17.2324L53.4062 20.1328L51.3652 20.1914L46.2871 9.78125H49.1973ZM64.6367 11.9395L60.584 24H57.7422L63.0547 9.78125H64.8711L64.6367 11.9395ZM68.0254 24L63.9531 11.9395L63.709 9.78125H65.5352L70.877 24H68.0254ZM67.8398 18.7168V20.8359H60.2129V18.7168H67.8398ZM81.9219 9.78125V11.9004H74.9785V9.78125H81.9219ZM83.9043 9.78125V24H81.209V9.78125H83.9043ZM74.5488 9.78125H77.2246L76.873 16.8809C76.821 17.929 76.7266 18.847 76.5898 19.6348C76.4531 20.4225 76.2676 21.0964 76.0332 21.6562C75.7988 22.2096 75.5059 22.6589 75.1543 23.0039C74.8027 23.349 74.3861 23.6029 73.9043 23.7656C73.429 23.9219 72.8757 24 72.2441 24H71.5703V21.8906L71.9512 21.8516C72.2832 21.8255 72.5697 21.7441 72.8105 21.6074C73.0579 21.4707 73.2695 21.2656 73.4453 20.9922C73.6211 20.7122 73.7643 20.3542 73.875 19.918C73.9922 19.4818 74.0833 18.9512 74.1484 18.3262C74.2201 17.7012 74.2721 16.9688 74.3047 16.1289L74.5488 9.78125ZM88.4355 15.1035H91.8828C92.9831 15.1035 93.9271 15.2891 94.7148 15.6602C95.5026 16.0247 96.1048 16.5358 96.5215 17.1934C96.9447 17.8509 97.1562 18.6224 97.1562 19.5078C97.1562 20.1719 97.0358 20.7773 96.7949 21.3242C96.5605 21.8711 96.2155 22.3464 95.7598 22.75C95.304 23.1471 94.7507 23.4564 94.0996 23.6777C93.4486 23.8926 92.7096 24 91.8828 24H86.6289V9.78125H89.3242V21.8906H91.8828C92.4688 21.8906 92.9538 21.7799 93.3379 21.5586C93.722 21.3372 94.0085 21.0443 94.1973 20.6797C94.3861 20.3151 94.4805 19.918 94.4805 19.4883C94.4805 19.0651 94.3861 18.681 94.1973 18.3359C94.0085 17.9909 93.722 17.7174 93.3379 17.5156C92.9538 17.3138 92.4688 17.2129 91.8828 17.2129H88.4355V15.1035ZM108.592 15.6504V17.7598H101.111V15.6504H108.592ZM101.844 9.78125V24H99.1582V9.78125H101.844ZM110.584 9.78125V24H107.898V9.78125H110.584ZM124.832 16.5293V17.2617C124.832 18.3359 124.689 19.3027 124.402 20.1621C124.116 21.015 123.709 21.7409 123.182 22.3398C122.654 22.9388 122.026 23.3978 121.297 23.7168C120.568 24.0358 119.757 24.1953 118.865 24.1953C117.986 24.1953 117.179 24.0358 116.443 23.7168C115.714 23.3978 115.083 22.9388 114.549 22.3398C114.015 21.7409 113.602 21.015 113.309 20.1621C113.016 19.3027 112.869 18.3359 112.869 17.2617V16.5293C112.869 15.4486 113.016 14.4818 113.309 13.6289C113.602 12.776 114.012 12.0501 114.539 11.4512C115.066 10.8457 115.695 10.3835 116.424 10.0645C117.16 9.74544 117.967 9.58594 118.846 9.58594C119.738 9.58594 120.548 9.74544 121.277 10.0645C122.007 10.3835 122.635 10.8457 123.162 11.4512C123.696 12.0501 124.106 12.776 124.393 13.6289C124.686 14.4818 124.832 15.4486 124.832 16.5293ZM122.117 17.2617V16.5098C122.117 15.735 122.046 15.0547 121.902 14.4688C121.759 13.8763 121.548 13.3783 121.268 12.9746C120.988 12.571 120.643 12.2682 120.232 12.0664C119.822 11.8581 119.36 11.7539 118.846 11.7539C118.325 11.7539 117.863 11.8581 117.459 12.0664C117.062 12.2682 116.723 12.571 116.443 12.9746C116.163 13.3783 115.949 13.8763 115.799 14.4688C115.656 15.0547 115.584 15.735 115.584 16.5098V17.2617C115.584 18.0299 115.656 18.7103 115.799 19.3027C115.949 19.8952 116.163 20.3965 116.443 20.8066C116.73 21.2103 117.075 21.5163 117.479 21.7246C117.882 21.9329 118.344 22.0371 118.865 22.0371C119.386 22.0371 119.848 21.9329 120.252 21.7246C120.656 21.5163 120.994 21.2103 121.268 20.8066C121.548 20.3965 121.759 19.8952 121.902 19.3027C122.046 18.7103 122.117 18.0299 122.117 17.2617ZM136.531 21.8906V24H128.973V21.8906H136.531ZM129.793 9.78125V24H127.107V9.78125H129.793ZM135.545 15.6504V17.7109H128.973V15.6504H135.545ZM136.502 9.78125V11.9004H128.973V9.78125H136.502ZM149.031 11.9395L144.979 24H142.137L147.449 9.78125H149.266L149.031 11.9395ZM152.42 24L148.348 11.9395L148.104 9.78125H149.93L155.271 24H152.42ZM152.234 18.7168V20.8359H144.607V18.7168H152.234ZM165.945 9.78125V11.9004H159.441V24H156.766V9.78125H165.945ZM177.312 21.8906V24H169.754V21.8906H177.312ZM170.574 9.78125V24H167.889V9.78125H170.574ZM176.326 15.6504V17.7109H169.754V15.6504H176.326ZM177.283 9.78125V11.9004H169.754V9.78125H177.283ZM188.611 15.6504V17.7598H181.131V15.6504H188.611ZM181.863 9.78125V24H179.178V9.78125H181.863ZM190.604 9.78125V24H187.918V9.78125H190.604ZM201.658 19.3223H204.344C204.272 20.2728 204.008 21.1159 203.553 21.8516C203.097 22.5807 202.462 23.1536 201.648 23.5703C200.835 23.987 199.848 24.1953 198.689 24.1953C197.798 24.1953 196.993 24.0391 196.277 23.7266C195.568 23.4076 194.959 22.9551 194.451 22.3691C193.95 21.7767 193.566 21.0671 193.299 20.2402C193.032 19.4069 192.898 18.4727 192.898 17.4375V16.3535C192.898 15.3184 193.035 14.3841 193.309 13.5508C193.582 12.7174 193.973 12.0078 194.48 11.4219C194.995 10.8294 195.61 10.3737 196.326 10.0547C197.049 9.73568 197.856 9.57617 198.748 9.57617C199.907 9.57617 200.887 9.79102 201.688 10.2207C202.488 10.6439 203.11 11.2266 203.553 11.9688C203.995 12.7109 204.262 13.5638 204.354 14.5273H201.668C201.616 13.9284 201.486 13.4206 201.277 13.0039C201.076 12.5872 200.77 12.2715 200.359 12.0566C199.956 11.8353 199.419 11.7246 198.748 11.7246C198.227 11.7246 197.768 11.8223 197.371 12.0176C196.98 12.2129 196.655 12.5059 196.395 12.8965C196.134 13.2806 195.939 13.7624 195.809 14.3418C195.678 14.9147 195.613 15.5788 195.613 16.334V17.4375C195.613 18.1602 195.672 18.8079 195.789 19.3809C195.906 19.9538 196.089 20.4388 196.336 20.8359C196.583 21.2331 196.902 21.5358 197.293 21.7441C197.684 21.9525 198.149 22.0566 198.689 22.0566C199.347 22.0566 199.881 21.9525 200.291 21.7441C200.708 21.5358 201.023 21.2298 201.238 20.8262C201.46 20.4225 201.6 19.9212 201.658 19.3223ZM212.234 9.78125V24H209.559V9.78125H212.234ZM216.648 9.78125V11.9004H205.193V9.78125H216.648ZM223.885 17.6621H220.252L220.232 15.7676H223.348C223.882 15.7676 224.327 15.6927 224.686 15.543C225.044 15.3932 225.314 15.1751 225.496 14.8887C225.685 14.6022 225.779 14.2539 225.779 13.8438C225.779 13.388 225.691 13.0169 225.516 12.7305C225.346 12.444 225.079 12.2357 224.715 12.1055C224.35 11.9688 223.888 11.9004 223.328 11.9004H221.121V24H218.436V9.78125H223.328C224.135 9.78125 224.855 9.85938 225.486 10.0156C226.124 10.1654 226.665 10.3997 227.107 10.7188C227.55 11.0378 227.885 11.4382 228.113 11.9199C228.348 12.4017 228.465 12.9746 228.465 13.6387C228.465 14.2246 228.328 14.765 228.055 15.2598C227.788 15.748 227.374 16.1452 226.814 16.4512C226.261 16.7572 225.558 16.9329 224.705 16.9785L223.885 17.6621ZM223.768 24H219.461L220.584 21.8906H223.768C224.301 21.8906 224.741 21.8027 225.086 21.627C225.438 21.4512 225.698 21.2103 225.867 20.9043C226.043 20.5918 226.131 20.2337 226.131 19.8301C226.131 19.3874 226.053 19.0033 225.896 18.6777C225.747 18.3522 225.506 18.1016 225.174 17.9258C224.848 17.75 224.419 17.6621 223.885 17.6621H221.092L221.111 15.7676H224.666L225.281 16.5C226.102 16.5065 226.769 16.6693 227.283 16.9883C227.804 17.3073 228.188 17.7174 228.436 18.2188C228.683 18.7201 228.807 19.2604 228.807 19.8398C228.807 20.7513 228.608 21.5163 228.211 22.1348C227.82 22.7533 227.247 23.2188 226.492 23.5312C225.743 23.8438 224.835 24 223.768 24ZM242.645 16.5293V17.2617C242.645 18.3359 242.501 19.3027 242.215 20.1621C241.928 21.015 241.521 21.7409 240.994 22.3398C240.467 22.9388 239.839 23.3978 239.109 23.7168C238.38 24.0358 237.57 24.1953 236.678 24.1953C235.799 24.1953 234.992 24.0358 234.256 23.7168C233.527 23.3978 232.895 22.9388 232.361 22.3398C231.827 21.7409 231.414 21.015 231.121 20.1621C230.828 19.3027 230.682 18.3359 230.682 17.2617V16.5293C230.682 15.4486 230.828 14.4818 231.121 13.6289C231.414 12.776 231.824 12.0501 232.352 11.4512C232.879 10.8457 233.507 10.3835 234.236 10.0645C234.972 9.74544 235.779 9.58594 236.658 9.58594C237.55 9.58594 238.361 9.74544 239.09 10.0645C239.819 10.3835 240.447 10.8457 240.975 11.4512C241.508 12.0501 241.919 12.776 242.205 13.6289C242.498 14.4818 242.645 15.4486 242.645 16.5293ZM239.93 17.2617V16.5098C239.93 15.735 239.858 15.0547 239.715 14.4688C239.572 13.8763 239.36 13.3783 239.08 12.9746C238.8 12.571 238.455 12.2682 238.045 12.0664C237.635 11.8581 237.173 11.7539 236.658 11.7539C236.137 11.7539 235.675 11.8581 235.271 12.0664C234.874 12.2682 234.536 12.571 234.256 12.9746C233.976 13.3783 233.761 13.8763 233.611 14.4688C233.468 15.0547 233.396 15.735 233.396 16.5098V17.2617C233.396 18.0299 233.468 18.7103 233.611 19.3027C233.761 19.8952 233.976 20.3965 234.256 20.8066C234.542 21.2103 234.887 21.5163 235.291 21.7246C235.695 21.9329 236.157 22.0371 236.678 22.0371C237.199 22.0371 237.661 21.9329 238.064 21.7246C238.468 21.5163 238.807 21.2103 239.08 20.8066C239.36 20.3965 239.572 19.8952 239.715 19.3027C239.858 18.7103 239.93 18.0299 239.93 17.2617Z" fill="white"/>
</svg>
