<svg width="359" height="35" viewBox="0 0 359 35" fill="none" xmlns="http://www.w3.org/2000/svg">
<rect width="238" height="35" fill="black"/>
<path d="M15.8262 18.8145H12.1641V16.7051H15.8262C16.4251 16.7051 16.9102 16.6074 17.2812 16.4121C17.6589 16.2103 17.9355 15.9368 18.1113 15.5918C18.2871 15.2402 18.375 14.8398 18.375 14.3906C18.375 13.9544 18.2871 13.5475 18.1113 13.1699C17.9355 12.7923 17.6589 12.4863 17.2812 12.252C16.9102 12.0176 16.4251 11.9004 15.8262 11.9004H13.043V24H10.3574V9.78125H15.8262C16.9329 9.78125 17.877 9.97982 18.6582 10.377C19.446 10.7676 20.0449 11.3112 20.4551 12.0078C20.8717 12.6979 21.0801 13.4857 21.0801 14.3711C21.0801 15.2891 20.8717 16.0801 20.4551 16.7441C20.0449 17.4082 19.446 17.9193 18.6582 18.2773C17.877 18.6354 16.9329 18.8145 15.8262 18.8145ZM25.8164 19.7031L31.8223 9.78125H34.5176V24H31.8223V14.0781L25.8164 24H23.1309V9.78125H25.8164V19.7031ZM43.0625 9.78125V24H40.3867V9.78125H43.0625ZM47.4766 9.78125V11.9004H36.0215V9.78125H47.4766ZM53.7168 18.9512L57.2715 9.78125H60.1914L55.2891 21.334C55.1263 21.7051 54.9408 22.0632 54.7324 22.4082C54.5241 22.7533 54.2734 23.0625 53.9805 23.3359C53.694 23.6029 53.3457 23.8145 52.9355 23.9707C52.5319 24.127 52.0436 24.2051 51.4707 24.2051C51.321 24.2051 51.1419 24.1986 50.9336 24.1855C50.7253 24.179 50.5658 24.1693 50.4551 24.1562V22.0469C50.5332 22.0664 50.6602 22.0794 50.8359 22.0859C51.0182 22.0924 51.1484 22.0957 51.2266 22.0957C51.6042 22.0957 51.9036 22.0371 52.125 21.9199C52.3529 21.7962 52.5319 21.6302 52.6621 21.4219C52.7988 21.207 52.9193 20.9629 53.0234 20.6895L53.7168 18.9512ZM51.1973 9.78125L54.6055 17.2324L55.4062 20.1328L53.3652 20.1914L48.2871 9.78125H51.1973ZM66.6367 11.9395L62.584 24H59.7422L65.0547 9.78125H66.8711L66.6367 11.9395ZM70.0254 24L65.9531 11.9395L65.709 9.78125H67.5352L72.877 24H70.0254ZM69.8398 18.7168V20.8359H62.2129V18.7168H69.8398ZM83.9219 9.78125V11.9004H76.9785V9.78125H83.9219ZM85.9043 9.78125V24H83.209V9.78125H85.9043ZM76.5488 9.78125H79.2246L78.873 16.8809C78.821 17.929 78.7266 18.847 78.5898 19.6348C78.4531 20.4225 78.2676 21.0964 78.0332 21.6562C77.7988 22.2096 77.5059 22.6589 77.1543 23.0039C76.8027 23.349 76.3861 23.6029 75.9043 23.7656C75.429 23.9219 74.8757 24 74.2441 24H73.5703V21.8906L73.9512 21.8516C74.2832 21.8255 74.5697 21.7441 74.8105 21.6074C75.0579 21.4707 75.2695 21.2656 75.4453 20.9922C75.6211 20.7122 75.7643 20.3542 75.875 19.918C75.9922 19.4818 76.0833 18.9512 76.1484 18.3262C76.2201 17.7012 76.2721 16.9688 76.3047 16.1289L76.5488 9.78125ZM90.4355 15.1035H93.8828C94.9831 15.1035 95.9271 15.2891 96.7148 15.6602C97.5026 16.0247 98.1048 16.5358 98.5215 17.1934C98.9447 17.8509 99.1562 18.6224 99.1562 19.5078C99.1562 20.1719 99.0358 20.7773 98.7949 21.3242C98.5605 21.8711 98.2155 22.3464 97.7598 22.75C97.304 23.1471 96.7507 23.4564 96.0996 23.6777C95.4486 23.8926 94.7096 24 93.8828 24H88.6289V9.78125H91.3242V21.8906H93.8828C94.4688 21.8906 94.9538 21.7799 95.3379 21.5586C95.722 21.3372 96.0085 21.0443 96.1973 20.6797C96.3861 20.3151 96.4805 19.918 96.4805 19.4883C96.4805 19.0651 96.3861 18.681 96.1973 18.3359C96.0085 17.9909 95.722 17.7174 95.3379 17.5156C94.9538 17.3138 94.4688 17.2129 93.8828 17.2129H90.4355V15.1035ZM110.592 15.6504V17.7598H103.111V15.6504H110.592ZM103.844 9.78125V24H101.158V9.78125H103.844ZM112.584 9.78125V24H109.898V9.78125H112.584ZM117.154 15.1035H120.602C121.702 15.1035 122.646 15.2891 123.434 15.6602C124.221 16.0247 124.824 16.5358 125.24 17.1934C125.663 17.8509 125.875 18.6224 125.875 19.5078C125.875 20.1719 125.755 20.7773 125.514 21.3242C125.279 21.8711 124.934 22.3464 124.479 22.75C124.023 23.1471 123.469 23.4564 122.818 23.6777C122.167 23.8926 121.428 24 120.602 24H115.348V9.78125H118.053V21.8906H120.602C121.188 21.8906 121.673 21.7799 122.057 21.5586C122.441 21.3372 122.727 21.0443 122.916 20.6797C123.105 20.3151 123.199 19.918 123.199 19.4883C123.199 19.0651 123.105 18.681 122.916 18.3359C122.727 17.9909 122.441 17.7174 122.057 17.5156C121.673 17.3138 121.188 17.2129 120.602 17.2129H117.154V15.1035ZM129.928 9.78125V24H127.242V9.78125H129.928ZM142.105 21.8906V24H134.547V21.8906H142.105ZM135.367 9.78125V24H132.682V9.78125H135.367ZM141.119 15.6504V17.7109H134.547V15.6504H141.119ZM142.076 9.78125V11.9004H134.547V9.78125H142.076ZM153.404 18.9512L156.959 9.78125H159.879L154.977 21.334C154.814 21.7051 154.628 22.0632 154.42 22.4082C154.212 22.7533 153.961 23.0625 153.668 23.3359C153.382 23.6029 153.033 23.8145 152.623 23.9707C152.219 24.127 151.731 24.2051 151.158 24.2051C151.008 24.2051 150.829 24.1986 150.621 24.1855C150.413 24.179 150.253 24.1693 150.143 24.1562V22.0469C150.221 22.0664 150.348 22.0794 150.523 22.0859C150.706 22.0924 150.836 22.0957 150.914 22.0957C151.292 22.0957 151.591 22.0371 151.812 21.9199C152.04 21.7962 152.219 21.6302 152.35 21.4219C152.486 21.207 152.607 20.9629 152.711 20.6895L153.404 18.9512ZM150.885 9.78125L154.293 17.2324L155.094 20.1328L153.053 20.1914L147.975 9.78125H150.885ZM169.654 19.3223H172.34C172.268 20.2728 172.005 21.1159 171.549 21.8516C171.093 22.5807 170.458 23.1536 169.645 23.5703C168.831 23.987 167.844 24.1953 166.686 24.1953C165.794 24.1953 164.99 24.0391 164.273 23.7266C163.564 23.4076 162.955 22.9551 162.447 22.3691C161.946 21.7767 161.562 21.0671 161.295 20.2402C161.028 19.4069 160.895 18.4727 160.895 17.4375V16.3535C160.895 15.3184 161.031 14.3841 161.305 13.5508C161.578 12.7174 161.969 12.0078 162.477 11.4219C162.991 10.8294 163.606 10.3737 164.322 10.0547C165.045 9.73568 165.852 9.57617 166.744 9.57617C167.903 9.57617 168.883 9.79102 169.684 10.2207C170.484 10.6439 171.106 11.2266 171.549 11.9688C171.992 12.7109 172.258 13.5638 172.35 14.5273H169.664C169.612 13.9284 169.482 13.4206 169.273 13.0039C169.072 12.5872 168.766 12.2715 168.355 12.0566C167.952 11.8353 167.415 11.7246 166.744 11.7246C166.223 11.7246 165.764 11.8223 165.367 12.0176C164.977 12.2129 164.651 12.5059 164.391 12.8965C164.13 13.2806 163.935 13.7624 163.805 14.3418C163.674 14.9147 163.609 15.5788 163.609 16.334V17.4375C163.609 18.1602 163.668 18.8079 163.785 19.3809C163.902 19.9538 164.085 20.4388 164.332 20.8359C164.579 21.2331 164.898 21.5358 165.289 21.7441C165.68 21.9525 166.145 22.0566 166.686 22.0566C167.343 22.0566 167.877 21.9525 168.287 21.7441C168.704 21.5358 169.02 21.2298 169.234 20.8262C169.456 20.4225 169.596 19.9212 169.654 19.3223ZM183.824 9.78125V11.9004H176.881V9.78125H183.824ZM185.807 9.78125V24H183.111V9.78125H185.807ZM176.451 9.78125H179.127L178.775 16.8809C178.723 17.929 178.629 18.847 178.492 19.6348C178.355 20.4225 178.17 21.0964 177.936 21.6562C177.701 22.2096 177.408 22.6589 177.057 23.0039C176.705 23.349 176.288 23.6029 175.807 23.7656C175.331 23.9219 174.778 24 174.146 24H173.473V21.8906L173.854 21.8516C174.186 21.8255 174.472 21.7441 174.713 21.6074C174.96 21.4707 175.172 21.2656 175.348 20.9922C175.523 20.7122 175.667 20.3542 175.777 19.918C175.895 19.4818 175.986 18.9512 176.051 18.3262C176.122 17.7012 176.174 16.9688 176.207 16.1289L176.451 9.78125ZM193.014 18.9512L196.568 9.78125H199.488L194.586 21.334C194.423 21.7051 194.238 22.0632 194.029 22.4082C193.821 22.7533 193.57 23.0625 193.277 23.3359C192.991 23.6029 192.643 23.8145 192.232 23.9707C191.829 24.127 191.34 24.2051 190.768 24.2051C190.618 24.2051 190.439 24.1986 190.23 24.1855C190.022 24.179 189.863 24.1693 189.752 24.1562V22.0469C189.83 22.0664 189.957 22.0794 190.133 22.0859C190.315 22.0924 190.445 22.0957 190.523 22.0957C190.901 22.0957 191.201 22.0371 191.422 21.9199C191.65 21.7962 191.829 21.6302 191.959 21.4219C192.096 21.207 192.216 20.9629 192.32 20.6895L193.014 18.9512ZM190.494 9.78125L193.902 17.2324L194.703 20.1328L192.662 20.1914L187.584 9.78125H190.494ZM210.387 9.78125V11.9004H203.883V24H201.207V9.78125H210.387ZM214.957 19.7031L220.963 9.78125H223.658V24H220.963V14.0781L214.957 24H212.271V9.78125H214.957V19.7031Z" fill="white"/>
<path d="M245.614 30.2273V24.125H246.739C247.125 23.7727 247.489 23.2756 247.83 22.6335C248.176 21.9858 248.469 21.1222 248.707 20.0426C248.952 18.9574 249.114 17.5795 249.193 15.9091L249.568 8.54545H259.932V24.125H261.943V30.1932H259.932V26H247.625V30.2273H245.614ZM249.261 24.125H257.92V10.4205H251.477L251.205 15.9091C251.136 17.1818 251.017 18.3352 250.847 19.3693C250.676 20.3977 250.457 21.3097 250.19 22.1051C249.923 22.8949 249.614 23.5682 249.261 24.125ZM279.864 17.2727C279.864 19.1136 279.532 20.7045 278.867 22.0455C278.202 23.3864 277.29 24.4205 276.131 25.1477C274.972 25.875 273.648 26.2386 272.16 26.2386C270.671 26.2386 269.347 25.875 268.188 25.1477C267.029 24.4205 266.117 23.3864 265.452 22.0455C264.788 20.7045 264.455 19.1136 264.455 17.2727C264.455 15.4318 264.788 13.8409 265.452 12.5C266.117 11.1591 267.029 10.125 268.188 9.39773C269.347 8.67045 270.671 8.30682 272.16 8.30682C273.648 8.30682 274.972 8.67045 276.131 9.39773C277.29 10.125 278.202 11.1591 278.867 12.5C279.532 13.8409 279.864 15.4318 279.864 17.2727ZM277.819 17.2727C277.819 15.7614 277.566 14.4858 277.06 13.446C276.56 12.4062 275.881 11.6193 275.023 11.0852C274.171 10.5511 273.217 10.2841 272.16 10.2841C271.103 10.2841 270.146 10.5511 269.288 11.0852C268.435 11.6193 267.756 12.4062 267.251 13.446C266.751 14.4858 266.501 15.7614 266.501 17.2727C266.501 18.7841 266.751 20.0597 267.251 21.0994C267.756 22.1392 268.435 22.9261 269.288 23.4602C270.146 23.9943 271.103 24.2614 272.16 24.2614C273.217 24.2614 274.171 23.9943 275.023 23.4602C275.881 22.9261 276.56 22.1392 277.06 21.0994C277.566 20.0597 277.819 18.7841 277.819 17.2727ZM283.418 26V8.54545H289.521C290.737 8.54545 291.739 8.75568 292.529 9.17614C293.319 9.59091 293.907 10.1506 294.293 10.8551C294.68 11.554 294.873 12.3295 294.873 13.1818C294.873 13.9318 294.739 14.5511 294.472 15.0398C294.211 15.5284 293.864 15.9148 293.433 16.1989C293.006 16.483 292.543 16.6932 292.043 16.8295V17C292.577 17.0341 293.114 17.2216 293.654 17.5625C294.194 17.9034 294.646 18.392 295.009 19.0284C295.373 19.6648 295.555 20.4432 295.555 21.3636C295.555 22.2386 295.356 23.0256 294.958 23.7244C294.56 24.4233 293.933 24.9773 293.075 25.3864C292.217 25.7955 291.1 26 289.725 26H283.418ZM285.532 24.125H289.725C291.106 24.125 292.086 23.858 292.665 23.3239C293.251 22.7841 293.543 22.1307 293.543 21.3636C293.543 20.7727 293.393 20.2273 293.092 19.7273C292.79 19.2216 292.362 18.8182 291.805 18.517C291.248 18.2102 290.589 18.0568 289.827 18.0568H285.532V24.125ZM285.532 16.2159H289.452C290.089 16.2159 290.663 16.0909 291.174 15.8409C291.691 15.5909 292.1 15.2386 292.401 14.7841C292.708 14.3295 292.862 13.7955 292.862 13.1818C292.862 12.4148 292.594 11.7642 292.06 11.2301C291.526 10.6903 290.68 10.4205 289.521 10.4205H285.532V16.2159ZM299.028 26V8.54545H309.562V10.4205H301.141V16.3182H309.016V18.1932H301.141V24.125H309.698V26H299.028ZM313.371 26V8.54545H319.269C320.638 8.54545 321.758 8.79261 322.627 9.28693C323.502 9.77557 324.15 10.4375 324.57 11.2727C324.991 12.108 325.201 13.0398 325.201 14.0682C325.201 15.0966 324.991 16.0312 324.57 16.8722C324.156 17.7131 323.513 18.3835 322.644 18.8835C321.775 19.3778 320.661 19.625 319.303 19.625H315.076V17.75H319.235C320.173 17.75 320.925 17.5881 321.494 17.2642C322.062 16.9403 322.474 16.5028 322.729 15.9517C322.991 15.3949 323.121 14.767 323.121 14.0682C323.121 13.3693 322.991 12.7443 322.729 12.1932C322.474 11.642 322.059 11.2102 321.485 10.8977C320.911 10.5795 320.15 10.4205 319.201 10.4205H315.485V26H313.371ZM328.606 8.54545H330.685V22.2841H330.856L340.401 8.54545H342.447V26H340.333V12.2955H340.163L330.651 26H328.606V8.54545ZM346.676 26V8.54545H357.21V10.4205H348.79V16.3182H356.665V18.1932H348.79V24.125H357.347V26H346.676Z" fill="black"/>
</svg>
